HIERARCHY
ROOT Hips
{
	OFFSET -3.958830 18.904000 13.208200
	CHANNELS 6 Xposition Yposition Zposition Zrotation Yrotation Xrotation 
	JOINT LHipJoint
	{
		OFFSET 0.000000 0.000000 0.000000
		CHANNELS 3 Zrotation Yrotation Xrotation
		JOINT LeftUpLeg
		{
			OFFSET 1.800000 -1.400000 0.085000
			CHANNELS 3 Zrotation Yrotation Xrotation
			JOINT LeftLeg
			{
				OFFSET 2.215000 -6.000000 0.000000
				CHANNELS 3 Zrotation Yrotation Xrotation
				JOINT LeftFoot
				{
					OFFSET 2.500000 -6.900000 0.000000
					CHANNELS 3 Zrotation Yrotation Xrotation
					JOINT LeftToeBase
					{
						OFFSET 0.200000 -0.500000 1.950000
						CHANNELS 3 Zrotation Yrotation Xrotation
						End Site
						{
							OFFSET 0.000000 0.000000 0.000000
						}
					}
				}
			}
		}
	}
	JOINT RHipJoint
	{
		OFFSET 0.000000 0.000000 0.000000
		CHANNELS 3 Zrotation Yrotation Xrotation
		JOINT RightUpLeg
		{
			OFFSET -1.800000 -1.400000 0.085000
			CHANNELS 3 Zrotation Yrotation Xrotation
			JOINT RightLeg
			{
				OFFSET -2.215000 -6.000000 0.000000
				CHANNELS 3 Zrotation Yrotation Xrotation
				JOINT RightFoot
				{
					OFFSET -2.500000 -6.900000 0.000000
					CHANNELS 3 Zrotation Yrotation Xrotation
					JOINT RightToeBase
					{
						OFFSET -0.200000 -0.500000 1.950000
						CHANNELS 3 Zrotation Yrotation Xrotation
						End Site
						{
							OFFSET 0.000000 0.000000 0.000000
						}
					}
				}
			}
		}
	}
	JOINT LowerBack
	{
		OFFSET 0.000000 0.000000 0.000000
		CHANNELS 3 Zrotation Yrotation Xrotation
		JOINT Spine
		{
			OFFSET -0.087000 1.940000 -0.288900
			CHANNELS 3 Zrotation Yrotation Xrotation
			JOINT Spine1
			{
				OFFSET 0.000000 1.950000 0.060000
				CHANNELS 3 Zrotation Yrotation Xrotation
				JOINT Neck
				{
					OFFSET 0.000000 0.000000 0.000000
					CHANNELS 3 Zrotation Yrotation Xrotation
					JOINT Neck1
					{
						OFFSET 0.000000 1.600000 0.340000
						CHANNELS 3 Zrotation Yrotation Xrotation
						JOINT Head
						{
							OFFSET 0.000000 1.667000 -0.240000
							CHANNELS 3 Zrotation Yrotation Xrotation
							End Site
							{
								OFFSET 0.000000 0.000000 0.000000
							}
						}
					}
				}
				JOINT LeftShoulder
				{
					OFFSET 0.000000 0.000000 0.000000
					CHANNELS 3 Zrotation Yrotation Xrotation
					JOINT LeftArm
					{
						OFFSET 2.700000 1.550000 -0.730000
						CHANNELS 3 Zrotation Yrotation Xrotation
						JOINT LeftForeArm
						{
							OFFSET 5.450000 0.000000 0.000000
							CHANNELS 3 Zrotation Yrotation Xrotation
							JOINT LeftHand
							{
								OFFSET 3.450000 0.000000 0.000000
								CHANNELS 3 Zrotation Yrotation Xrotation
								JOINT LeftHandIndex1
								{
									OFFSET 0.750000 0.000000 0.000000
									CHANNELS 3 Zrotation Yrotation Xrotation
									End Site
									{
										OFFSET 0.000000 0.000000 0.000000
									}
								}
							}
						}
					}
				}
				JOINT RightShoulder
				{
					OFFSET 0.000000 0.000000 0.000000
					CHANNELS 3 Zrotation Yrotation Xrotation
					JOINT RightArm
					{
						OFFSET -2.700000 1.550000 -0.730000
						CHANNELS 3 Zrotation Yrotation Xrotation
						JOINT RightForeArm
						{
							OFFSET -5.450000 0.000000 0.000000
							CHANNELS 3 Zrotation Yrotation Xrotation
							JOINT RightHand
							{
								OFFSET -3.450000 0.000000 0.000000
								CHANNELS 3 Zrotation Yrotation Xrotation
								JOINT RightHandIndex1
								{
									OFFSET -0.750000 0.000000 0.000000
									CHANNELS 3 Zrotation Yrotation Xrotation
									End Site
									{
										OFFSET 0.000000 0.000000 0.000000
									}
								}
							}
						}
					}
				}
			}
		}
	}
}
MOTION
Frames: 7
Frame Time: 0.016667
-0.663870 16.673570 -0.840570 3.485599 6.423916 -5.770149 -15.846789 12.937256 4.200791 -17.601970 -1.758273 6.013068 -16.354525 14.052329 35.388568 0.998707 9.912947 1.779652 -0.765390 -1.265460 -0.539310 18.017810 -7.520165 4.405050 -1.052056 9.878810 -44.021347 17.035306 -19.023881 54.343471 -1.395419 -10.180868 1.101964 -0.702290 1.219640 0.539770 -2.333203 -6.107988 -9.235295 27.088477 -16.526666 52.752130 -12.382246 -4.460020 -23.219996 11.932168 5.710475 -5.666650 10.058316 -2.332340 31.212298 -20.611440 15.169210 5.771280 -12.804837 19.158206 -10.660038 -1.018431 -7.513532 6.752334 127.561751 -52.896238 -83.564903 -4.582918 2.366463 0.627690 0.729760 -0.288610 0.257650 -12.410984 -19.059941 11.804619 59.854678 -6.974178 1.462934 -154.490387 39.831444 -127.067913 1.793678 -2.204714 -0.691890 0.372340 0.615700 -0.005150 
-0.643440 16.541040 -0.809730 5.283703 6.896159 -5.652610 -16.000254 13.126177 4.368020 -20.117600 -1.173241 7.327805 -14.308117 13.107732 35.378619 0.963329 9.733447 1.802934 -0.776560 -1.318520 -0.548820 17.905313 -7.132578 4.425542 -0.929308 10.279053 -44.709459 15.375474 -18.701714 57.258092 -1.487326 -10.467180 1.004603 -0.757900 1.165280 0.558100 -1.962346 -7.199081 -9.369565 25.750226 -17.483464 54.870556 -13.037941 -3.453036 -27.405843 11.719793 5.174204 -6.630952 8.682568 -2.990544 32.960718 -20.566470 13.871650 5.807370 -10.414964 20.571645 -10.876804 -0.540254 -6.842142 7.348455 136.838515 -44.465923 -85.262134 -4.476428 2.771673 0.701760 0.665970 -0.256950 0.229620 -14.385124 -18.734290 12.460377 62.198646 -11.589320 -0.074035 -157.485399 31.839666 -119.020963 1.730073 -2.237306 -0.671480 0.338800 0.656230 -0.024760 
-0.662240 16.467760 -0.774690 6.396967 4.765113 -5.008331 -16.061716 13.036471 4.411086 -22.115628 -0.920200 6.098471 -13.581091 12.932283 36.158069 0.956497 9.574076 1.810437 -0.669500 -1.233760 -0.386750 17.897725 -6.852059 4.618267 0.464311 12.373228 -45.512626 12.445125 -17.435156 60.978706 -1.593386 -10.662011 0.938655 -0.739050 0.997090 0.534150 -1.849282 -7.430890 -9.523380 24.522335 -16.342916 55.843648 -13.249870 -2.309837 -29.142255 11.508210 5.389171 -7.385506 8.876034 -3.799556 34.425065 -22.180500 14.004990 4.472030 -10.507158 19.596156 -10.229652 0.053443 -2.805112 6.550392 148.488502 -33.043007 -88.489171 -4.227774 3.100965 0.767910 0.564810 -0.174950 0.210130 -13.662079 -17.303831 12.752305 63.368366 -14.184936 -2.050233 -158.562299 29.598689 -118.687861 1.753852 -2.256339 -0.637500 0.269910 0.546810 -0.077240 
-0.680070 16.469030 -0.722880 6.716033 4.028712 -4.538690 -16.029154 12.963618 4.473427 -23.103662 -1.420315 5.198335 -12.952374 12.610301 37.030569 1.016032 9.510828 1.816337 -0.717330 -1.281200 -0.430280 17.937151 -6.849776 4.643763 1.619350 12.600734 -45.895857 10.391223 -16.690697 62.685280 -1.623514 -10.679361 0.926120 -0.807460 0.977550 0.545030 -1.953679 -7.373743 -9.552534 24.536558 -18.285658 56.839518 -14.761770 -3.356671 -32.204349 10.862070 4.450556 -7.849178 7.233096 -2.595829 36.327360 -20.449700 13.746990 5.365380 -9.101406 20.638736 -9.786748 1.339114 1.297931 6.167020 152.335356 -30.505739 -93.600480 -4.180425 3.208198 0.778080 0.525490 -0.143130 0.190030 -13.904092 -17.404000 12.891881 64.116293 -16.315393 -3.122679 -158.752346 31.005238 -120.992549 1.764046 -2.242852 -0.595530 0.244920 0.577250 -0.056330 
-0.704330 16.503300 -0.698660 5.167331 2.402325 -7.684672 -15.837821 12.780731 4.363836 -20.723334 -1.270333 7.101224 -15.336190 13.950236 36.559083 1.241928 9.809270 1.751880 -0.715300 -1.269580 -0.503000 18.099577 -7.280979 4.503731 4.268054 12.548077 -42.463252 9.041036 -16.801655 63.811677 -1.688813 -10.845858 0.891035 -0.843500 1.008190 0.561350 -2.452762 -6.311848 -9.382216 26.443046 -19.684463 59.732886 -13.915217 -6.343683 -29.981705 9.036893 2.369743 -7.275383 3.644528 -0.324250 34.113475 -15.669450 13.355540 5.459320 -6.724459 22.129410 -8.053657 -4.236193 3.094863 4.898112 154.724452 -32.320317 -105.861010 -4.202148 3.357328 0.703130 0.509160 -0.181750 0.217990 -13.229107 -18.896470 11.421666 63.612155 -13.134508 -2.591256 -159.756092 39.015272 -137.894627 1.807784 -2.321645 -0.524460 0.166970 0.562980 0.004620 
-0.722170 16.584030 -0.628280 3.975763 1.938593 -8.487806 -15.681596 12.766361 4.287242 -18.437277 -1.571039 7.492531 -16.131907 14.444765 36.690757 1.289276 9.932262 1.734897 -0.757810 -1.281970 -0.589000 18.197468 -7.695885 4.360253 5.234889 11.451099 -40.647094 8.224394 -16.885543 63.009904 -1.659598 -10.654156 0.991633 -0.861180 1.041550 0.510930 -2.814116 -5.645670 -9.259432 28.994259 -20.531014 57.546046 -13.994649 -7.708118 -28.236035 8.159308 0.678184 -7.413524 0.315115 -0.229194 37.220904 -13.468900 10.919760 6.149970 -5.648448 23.462931 -6.866342 -11.440700 2.686825 5.573304 159.865662 -37.671681 -126.569587 -4.152459 3.371334 0.712000 0.488590 -0.183650 0.236630 -12.625178 -20.043626 10.774054 62.398464 -13.193082 -4.353617 -164.121686 48.376688 -156.329736 1.739838 -2.288920 -0.536100 0.238950 0.585810 0.042460 
-0.790130 16.714760 -0.556290 2.969321 1.510910 -7.958779 -15.616023 12.939457 4.133575 -15.245723 -1.987557 6.423052 -16.983472 15.081687 37.018798 1.326466 10.030946 1.694824 -0.774400 -1.270840 -0.641890 18.208190 -7.867772 4.337304 5.327886 11.089706 -39.328787 9.317164 -17.237302 60.712277 -1.616247 -10.304381 1.127401 -0.880230 1.039500 0.483090 -2.920067 -5.598370 -9.206839 29.051721 -19.729794 54.579387 -12.252326 -6.957068 -26.844433 6.992074 -0.358070 -8.422009 -1.960602 0.895297 41.481092 -11.300530 9.362310 7.558710 -4.750570 23.801590 -4.433914 -17.794669 7.264456 5.658526 167.978891 -44.659387 -152.747518 -4.133477 3.399946 0.729760 0.456820 -0.152580 0.245730 -11.100174 -20.079117 9.636897 60.376513 -12.446843 -7.664114 -173.040712 60.419846 -175.282780 1.663087 -2.115520 -0.515260 0.286660 0.602680 0.071020 
